<mxfile host="Electron" agent="Mozilla/5.0 (Windows NT 10.0; Win64; x64) AppleWebKit/537.36 (KHTML, like Gecko) draw.io/26.0.9 Chrome/128.0.6613.186 Electron/32.2.5 Safari/537.36" version="26.0.9">
  <diagram name="Страница — 1" id="UZ8XTnpLTkH9Dg526BjZ">
    <mxGraphModel dx="2390" dy="1393" grid="1" gridSize="10" guides="1" tooltips="1" connect="1" arrows="1" fold="1" page="1" pageScale="1" pageWidth="827" pageHeight="1169" math="0" shadow="0">
      <root>
        <mxCell id="0" />
        <mxCell id="1" parent="0" />
        <mxCell id="FIlBFSI00tIFWNVNL5qN-1" value="" style="edgeStyle=orthogonalEdgeStyle;rounded=0;orthogonalLoop=1;jettySize=auto;html=1;" parent="1" source="FIlBFSI00tIFWNVNL5qN-2" edge="1">
          <mxGeometry relative="1" as="geometry">
            <mxPoint x="360" y="140" as="targetPoint" />
          </mxGeometry>
        </mxCell>
        <mxCell id="FIlBFSI00tIFWNVNL5qN-2" value="Начало" style="ellipse;whiteSpace=wrap;html=1;" parent="1" vertex="1">
          <mxGeometry x="300" y="70" width="120" height="40" as="geometry" />
        </mxCell>
        <mxCell id="FIlBFSI00tIFWNVNL5qN-3" value="" style="edgeStyle=orthogonalEdgeStyle;rounded=0;orthogonalLoop=1;jettySize=auto;html=1;" parent="1" source="FIlBFSI00tIFWNVNL5qN-4" edge="1">
          <mxGeometry relative="1" as="geometry">
            <mxPoint x="360" y="190" as="targetPoint" />
          </mxGeometry>
        </mxCell>
        <mxCell id="FIlBFSI00tIFWNVNL5qN-4" value="int main()" style="shape=process;whiteSpace=wrap;html=1;backgroundOutline=1;" parent="1" vertex="1">
          <mxGeometry x="300" y="140" width="120" height="30" as="geometry" />
        </mxCell>
        <mxCell id="FIlBFSI00tIFWNVNL5qN-5" value="srand(time(NULL));" style="rounded=0;whiteSpace=wrap;html=1;" parent="1" vertex="1">
          <mxGeometry x="300" y="190" width="120" height="30" as="geometry" />
        </mxCell>
        <mxCell id="FIlBFSI00tIFWNVNL5qN-6" value="" style="edgeStyle=orthogonalEdgeStyle;rounded=0;orthogonalLoop=1;jettySize=auto;html=1;" parent="1" edge="1">
          <mxGeometry relative="1" as="geometry">
            <mxPoint x="360" y="220" as="sourcePoint" />
            <mxPoint x="360" y="240" as="targetPoint" />
          </mxGeometry>
        </mxCell>
        <mxCell id="FIlBFSI00tIFWNVNL5qN-7" value="setlocale(LC_ALL, &quot;Russian&quot;);" style="rounded=0;whiteSpace=wrap;html=1;" parent="1" vertex="1">
          <mxGeometry x="300" y="240" width="120" height="30" as="geometry" />
        </mxCell>
        <mxCell id="FIlBFSI00tIFWNVNL5qN-8" value="" style="edgeStyle=orthogonalEdgeStyle;rounded=0;orthogonalLoop=1;jettySize=auto;html=1;" parent="1" edge="1">
          <mxGeometry relative="1" as="geometry">
            <mxPoint x="360" y="270" as="sourcePoint" />
            <mxPoint x="360" y="290" as="targetPoint" />
          </mxGeometry>
        </mxCell>
        <mxCell id="FIlBFSI00tIFWNVNL5qN-9" value="&lt;div&gt;#include &amp;lt;iostream&amp;gt;&lt;/div&gt;&lt;div&gt;#include &amp;lt;cstdlib&amp;gt;&lt;/div&gt;&lt;div&gt;#include &amp;lt;ctime&amp;gt;&lt;/div&gt;&lt;div&gt;using namespace std;&lt;/div&gt;&lt;div&gt;&lt;div&gt;const int n = 100;&lt;/div&gt;&lt;div&gt;int user, N;&lt;br&gt;&lt;/div&gt;&lt;div&gt;int a[n];&lt;/div&gt;&lt;/div&gt;" style="strokeWidth=2;html=1;shape=mxgraph.flowchart.annotation_2;align=left;labelPosition=right;pointerEvents=1;" parent="1" vertex="1">
          <mxGeometry x="440" y="70" width="50" height="100" as="geometry" />
        </mxCell>
        <mxCell id="FIlBFSI00tIFWNVNL5qN-10" value="" style="endArrow=none;dashed=1;html=1;rounded=0;entryX=-0.04;entryY=0.503;entryDx=0;entryDy=0;entryPerimeter=0;" parent="1" target="FIlBFSI00tIFWNVNL5qN-9" edge="1">
          <mxGeometry width="50" height="50" relative="1" as="geometry">
            <mxPoint x="360" y="120" as="sourcePoint" />
            <mxPoint x="430" y="120" as="targetPoint" />
          </mxGeometry>
        </mxCell>
        <mxCell id="FIlBFSI00tIFWNVNL5qN-11" value="cout &amp;lt;&amp;lt; &quot;Введите длину массива (max 100): &quot;;" style="shape=parallelogram;perimeter=parallelogramPerimeter;whiteSpace=wrap;html=1;fixedSize=1;" parent="1" vertex="1">
          <mxGeometry x="220" y="290" width="280" height="40" as="geometry" />
        </mxCell>
        <mxCell id="FIlBFSI00tIFWNVNL5qN-12" value="" style="edgeStyle=orthogonalEdgeStyle;rounded=0;orthogonalLoop=1;jettySize=auto;html=1;" parent="1" edge="1">
          <mxGeometry relative="1" as="geometry">
            <mxPoint x="360" y="330" as="sourcePoint" />
            <mxPoint x="360" y="350" as="targetPoint" />
          </mxGeometry>
        </mxCell>
        <mxCell id="FIlBFSI00tIFWNVNL5qN-13" value="cin &amp;gt;&amp;gt; N;" style="shape=parallelogram;perimeter=parallelogramPerimeter;whiteSpace=wrap;html=1;fixedSize=1;" parent="1" vertex="1">
          <mxGeometry x="310" y="350" width="90" height="40" as="geometry" />
        </mxCell>
        <mxCell id="FIlBFSI00tIFWNVNL5qN-14" value="" style="edgeStyle=orthogonalEdgeStyle;rounded=0;orthogonalLoop=1;jettySize=auto;html=1;" parent="1" edge="1">
          <mxGeometry relative="1" as="geometry">
            <mxPoint x="363.97142857142853" y="390" as="sourcePoint" />
            <mxPoint x="363.97142857142853" y="410" as="targetPoint" />
          </mxGeometry>
        </mxCell>
        <mxCell id="FIlBFSI00tIFWNVNL5qN-15" style="edgeStyle=orthogonalEdgeStyle;rounded=0;orthogonalLoop=1;jettySize=auto;html=1;exitX=1;exitY=0.5;exitDx=0;exitDy=0;" parent="1" source="FIlBFSI00tIFWNVNL5qN-16" edge="1">
          <mxGeometry relative="1" as="geometry">
            <mxPoint x="620" y="470" as="targetPoint" />
          </mxGeometry>
        </mxCell>
        <mxCell id="FIlBFSI00tIFWNVNL5qN-16" value="" style="verticalLabelPosition=bottom;verticalAlign=top;html=1;shape=hexagon;perimeter=hexagonPerimeter2;arcSize=6;size=0.11951219512195121;" parent="1" vertex="1">
          <mxGeometry x="259.47142857142853" y="410" width="205" height="50" as="geometry" />
        </mxCell>
        <mxCell id="FIlBFSI00tIFWNVNL5qN-17" value="" style="edgeStyle=orthogonalEdgeStyle;rounded=0;orthogonalLoop=1;jettySize=auto;html=1;" parent="1" edge="1">
          <mxGeometry relative="1" as="geometry">
            <mxPoint x="363.7314285714285" y="460" as="sourcePoint" />
            <mxPoint x="363.97142857142853" y="480" as="targetPoint" />
          </mxGeometry>
        </mxCell>
        <mxCell id="FIlBFSI00tIFWNVNL5qN-18" value="for (int i = 0; i &amp;lt; N; i++)" style="text;html=1;align=center;verticalAlign=middle;whiteSpace=wrap;rounded=0;" parent="1" vertex="1">
          <mxGeometry x="290" y="420" width="133.97" height="30" as="geometry" />
        </mxCell>
        <mxCell id="FIlBFSI00tIFWNVNL5qN-19" value="" style="edgeStyle=orthogonalEdgeStyle;rounded=0;orthogonalLoop=1;jettySize=auto;html=1;entryX=0;entryY=0.5;entryDx=0;entryDy=0;" parent="1" target="FIlBFSI00tIFWNVNL5qN-16" edge="1">
          <mxGeometry relative="1" as="geometry">
            <mxPoint x="363.97142857142853" y="510" as="sourcePoint" />
            <mxPoint x="243.97142857142853" y="480" as="targetPoint" />
            <Array as="points">
              <mxPoint x="363.97142857142853" y="560" />
              <mxPoint x="239.97142857142853" y="560" />
              <mxPoint x="239.97142857142853" y="435" />
            </Array>
          </mxGeometry>
        </mxCell>
        <mxCell id="FIlBFSI00tIFWNVNL5qN-20" value="a[i] = rand() % 25;" style="rounded=0;whiteSpace=wrap;html=1;" parent="1" vertex="1">
          <mxGeometry x="303.97142857142853" y="480" width="120" height="30" as="geometry" />
        </mxCell>
        <mxCell id="FIlBFSI00tIFWNVNL5qN-21" value="cout &amp;lt;&amp;lt; &quot;Исходный массив: &quot; &amp;lt;&amp;lt; endl;" style="shape=parallelogram;perimeter=parallelogramPerimeter;whiteSpace=wrap;html=1;fixedSize=1;" parent="1" vertex="1">
          <mxGeometry x="464.47" y="470" width="280" height="40" as="geometry" />
        </mxCell>
        <mxCell id="FIlBFSI00tIFWNVNL5qN-22" value="" style="edgeStyle=orthogonalEdgeStyle;rounded=0;orthogonalLoop=1;jettySize=auto;html=1;" parent="1" edge="1">
          <mxGeometry relative="1" as="geometry">
            <mxPoint x="623.9714285714285" y="510" as="sourcePoint" />
            <mxPoint x="623.9714285714285" y="530" as="targetPoint" />
          </mxGeometry>
        </mxCell>
        <mxCell id="FIlBFSI00tIFWNVNL5qN-23" style="edgeStyle=orthogonalEdgeStyle;rounded=0;orthogonalLoop=1;jettySize=auto;html=1;exitX=1;exitY=0.5;exitDx=0;exitDy=0;" parent="1" source="FIlBFSI00tIFWNVNL5qN-24" edge="1">
          <mxGeometry relative="1" as="geometry">
            <mxPoint x="873.9714285714285" y="640" as="targetPoint" />
          </mxGeometry>
        </mxCell>
        <mxCell id="FIlBFSI00tIFWNVNL5qN-24" value="" style="verticalLabelPosition=bottom;verticalAlign=top;html=1;shape=hexagon;perimeter=hexagonPerimeter2;arcSize=6;size=0.11951219512195121;" parent="1" vertex="1">
          <mxGeometry x="519.4714285714285" y="530" width="205" height="50" as="geometry" />
        </mxCell>
        <mxCell id="FIlBFSI00tIFWNVNL5qN-25" value="" style="edgeStyle=orthogonalEdgeStyle;rounded=0;orthogonalLoop=1;jettySize=auto;html=1;" parent="1" edge="1">
          <mxGeometry relative="1" as="geometry">
            <mxPoint x="623.7314285714285" y="580" as="sourcePoint" />
            <mxPoint x="623.9714285714285" y="600" as="targetPoint" />
          </mxGeometry>
        </mxCell>
        <mxCell id="FIlBFSI00tIFWNVNL5qN-26" value="for (int i = 0; i &amp;lt; N; i++)" style="text;html=1;align=center;verticalAlign=middle;whiteSpace=wrap;rounded=0;" parent="1" vertex="1">
          <mxGeometry x="560" y="540" width="123.97" height="30" as="geometry" />
        </mxCell>
        <mxCell id="FIlBFSI00tIFWNVNL5qN-27" value="" style="edgeStyle=orthogonalEdgeStyle;rounded=0;orthogonalLoop=1;jettySize=auto;html=1;entryX=0;entryY=0.5;entryDx=0;entryDy=0;" parent="1" target="FIlBFSI00tIFWNVNL5qN-24" edge="1">
          <mxGeometry relative="1" as="geometry">
            <mxPoint x="623.9714285714285" y="630" as="sourcePoint" />
            <mxPoint x="503.97142857142853" y="600" as="targetPoint" />
            <Array as="points">
              <mxPoint x="623.9714285714285" y="680" />
              <mxPoint x="499.97142857142853" y="680" />
              <mxPoint x="499.97142857142853" y="555" />
            </Array>
          </mxGeometry>
        </mxCell>
        <mxCell id="FIlBFSI00tIFWNVNL5qN-28" value="cout &amp;lt;&amp;lt; a[i] &amp;lt;&amp;lt; &#39; &#39;;" style="rounded=0;whiteSpace=wrap;html=1;" parent="1" vertex="1">
          <mxGeometry x="563.9714285714285" y="600" width="120" height="30" as="geometry" />
        </mxCell>
        <mxCell id="FIlBFSI00tIFWNVNL5qN-30" style="edgeStyle=orthogonalEdgeStyle;rounded=0;orthogonalLoop=1;jettySize=auto;html=1;exitX=0.5;exitY=1;exitDx=0;exitDy=0;" parent="1" source="FIlBFSI00tIFWNVNL5qN-29" edge="1">
          <mxGeometry relative="1" as="geometry">
            <mxPoint x="870.3103448275863" y="700" as="targetPoint" />
          </mxGeometry>
        </mxCell>
        <mxCell id="FIlBFSI00tIFWNVNL5qN-29" value="do" style="rounded=0;whiteSpace=wrap;html=1;" parent="1" vertex="1">
          <mxGeometry x="810.0014285714285" y="640" width="120" height="30" as="geometry" />
        </mxCell>
        <mxCell id="FIlBFSI00tIFWNVNL5qN-31" value="cout &amp;lt;&amp;lt; &quot;\n\n1. Вывести массив&quot; &amp;lt;&amp;lt; endl;" style="shape=parallelogram;perimeter=parallelogramPerimeter;whiteSpace=wrap;html=1;fixedSize=1;" parent="1" vertex="1">
          <mxGeometry x="744.47" y="700" width="280" height="40" as="geometry" />
        </mxCell>
        <mxCell id="FIlBFSI00tIFWNVNL5qN-32" style="edgeStyle=orthogonalEdgeStyle;rounded=0;orthogonalLoop=1;jettySize=auto;html=1;exitX=0.5;exitY=1;exitDx=0;exitDy=0;" parent="1" edge="1">
          <mxGeometry relative="1" as="geometry">
            <mxPoint x="870.3103448275863" y="770" as="targetPoint" />
            <mxPoint x="870" y="740" as="sourcePoint" />
          </mxGeometry>
        </mxCell>
        <mxCell id="FIlBFSI00tIFWNVNL5qN-33" value="cout &amp;lt;&amp;lt; &quot;2. Вывести одномерное кольцо&quot; &amp;lt;&amp;lt; endl;" style="shape=parallelogram;perimeter=parallelogramPerimeter;whiteSpace=wrap;html=1;fixedSize=1;" parent="1" vertex="1">
          <mxGeometry x="730" y="770" width="300" height="40" as="geometry" />
        </mxCell>
        <mxCell id="FIlBFSI00tIFWNVNL5qN-34" style="edgeStyle=orthogonalEdgeStyle;rounded=0;orthogonalLoop=1;jettySize=auto;html=1;exitX=0.5;exitY=1;exitDx=0;exitDy=0;" parent="1" edge="1">
          <mxGeometry relative="1" as="geometry">
            <mxPoint x="870.3103448275863" y="840" as="targetPoint" />
            <mxPoint x="870" y="810" as="sourcePoint" />
          </mxGeometry>
        </mxCell>
        <mxCell id="FIlBFSI00tIFWNVNL5qN-35" value="cout &amp;lt;&amp;lt; &quot;3. Удалить нечетные элементы&quot; &amp;lt;&amp;lt; endl;" style="shape=parallelogram;perimeter=parallelogramPerimeter;whiteSpace=wrap;html=1;fixedSize=1;" parent="1" vertex="1">
          <mxGeometry x="710" y="840" width="314.47" height="40" as="geometry" />
        </mxCell>
        <mxCell id="FIlBFSI00tIFWNVNL5qN-36" style="edgeStyle=orthogonalEdgeStyle;rounded=0;orthogonalLoop=1;jettySize=auto;html=1;exitX=0.5;exitY=1;exitDx=0;exitDy=0;" parent="1" edge="1">
          <mxGeometry relative="1" as="geometry">
            <mxPoint x="870.3103448275863" y="910" as="targetPoint" />
            <mxPoint x="870" y="880" as="sourcePoint" />
          </mxGeometry>
        </mxCell>
        <mxCell id="FIlBFSI00tIFWNVNL5qN-37" value="cout &amp;lt;&amp;lt; &quot;4. Упорядочить элементы по убыванию&quot; &amp;lt;&amp;lt; endl;" style="shape=parallelogram;perimeter=parallelogramPerimeter;whiteSpace=wrap;html=1;fixedSize=1;" parent="1" vertex="1">
          <mxGeometry x="700" y="910" width="360" height="40" as="geometry" />
        </mxCell>
        <mxCell id="FIlBFSI00tIFWNVNL5qN-38" style="edgeStyle=orthogonalEdgeStyle;rounded=0;orthogonalLoop=1;jettySize=auto;html=1;exitX=0.5;exitY=1;exitDx=0;exitDy=0;" parent="1" edge="1">
          <mxGeometry relative="1" as="geometry">
            <mxPoint x="870.3103448275863" y="980" as="targetPoint" />
            <mxPoint x="870" y="950" as="sourcePoint" />
          </mxGeometry>
        </mxCell>
        <mxCell id="FIlBFSI00tIFWNVNL5qN-39" value="cout &amp;lt;&amp;lt; &quot;5. Выход&quot; &amp;lt;&amp;lt; endl;" style="shape=parallelogram;perimeter=parallelogramPerimeter;whiteSpace=wrap;html=1;fixedSize=1;" parent="1" vertex="1">
          <mxGeometry x="720" y="980" width="304.47" height="40" as="geometry" />
        </mxCell>
        <mxCell id="FIlBFSI00tIFWNVNL5qN-40" style="edgeStyle=orthogonalEdgeStyle;rounded=0;orthogonalLoop=1;jettySize=auto;html=1;exitX=0.5;exitY=1;exitDx=0;exitDy=0;" parent="1" edge="1">
          <mxGeometry relative="1" as="geometry">
            <mxPoint x="868.0803448275863" y="1050" as="targetPoint" />
            <mxPoint x="867.77" y="1020" as="sourcePoint" />
          </mxGeometry>
        </mxCell>
        <mxCell id="FIlBFSI00tIFWNVNL5qN-41" value="cout &amp;lt;&amp;lt; &quot;Выберите действие: &quot;;" style="shape=parallelogram;perimeter=parallelogramPerimeter;whiteSpace=wrap;html=1;fixedSize=1;" parent="1" vertex="1">
          <mxGeometry x="717.77" y="1050" width="304.47" height="40" as="geometry" />
        </mxCell>
        <mxCell id="FIlBFSI00tIFWNVNL5qN-42" style="edgeStyle=orthogonalEdgeStyle;rounded=0;orthogonalLoop=1;jettySize=auto;html=1;exitX=0.5;exitY=1;exitDx=0;exitDy=0;" parent="1" edge="1">
          <mxGeometry relative="1" as="geometry">
            <mxPoint x="868.0803448275863" y="1120" as="targetPoint" />
            <mxPoint x="867.77" y="1090" as="sourcePoint" />
          </mxGeometry>
        </mxCell>
        <mxCell id="FIlBFSI00tIFWNVNL5qN-44" style="edgeStyle=orthogonalEdgeStyle;rounded=0;orthogonalLoop=1;jettySize=auto;html=1;exitX=0.5;exitY=1;exitDx=0;exitDy=0;" parent="1" source="FIlBFSI00tIFWNVNL5qN-43" edge="1">
          <mxGeometry relative="1" as="geometry">
            <mxPoint x="870.3103448275863" y="1190.0000000000002" as="targetPoint" />
          </mxGeometry>
        </mxCell>
        <mxCell id="FIlBFSI00tIFWNVNL5qN-43" value="cin &amp;gt;&amp;gt; user;" style="shape=parallelogram;perimeter=parallelogramPerimeter;whiteSpace=wrap;html=1;fixedSize=1;" parent="1" vertex="1">
          <mxGeometry x="717.77" y="1120" width="304.47" height="40" as="geometry" />
        </mxCell>
        <mxCell id="FIlBFSI00tIFWNVNL5qN-47" style="edgeStyle=orthogonalEdgeStyle;rounded=0;orthogonalLoop=1;jettySize=auto;html=1;exitX=0.5;exitY=1;exitDx=0;exitDy=0;" parent="1" source="FIlBFSI00tIFWNVNL5qN-45" edge="1">
          <mxGeometry relative="1" as="geometry">
            <mxPoint x="870" y="1300" as="targetPoint" />
          </mxGeometry>
        </mxCell>
        <mxCell id="FIlBFSI00tIFWNVNL5qN-45" value="switch (user)" style="rhombus;whiteSpace=wrap;html=1;" parent="1" vertex="1">
          <mxGeometry x="800" y="1190" width="140" height="80" as="geometry" />
        </mxCell>
        <mxCell id="FIlBFSI00tIFWNVNL5qN-49" style="edgeStyle=orthogonalEdgeStyle;rounded=0;orthogonalLoop=1;jettySize=auto;html=1;exitX=1;exitY=0.5;exitDx=0;exitDy=0;" parent="1" source="FIlBFSI00tIFWNVNL5qN-48" edge="1">
          <mxGeometry relative="1" as="geometry">
            <mxPoint x="1140" y="1390.0000000000002" as="targetPoint" />
          </mxGeometry>
        </mxCell>
        <mxCell id="FIlBFSI00tIFWNVNL5qN-60" style="edgeStyle=orthogonalEdgeStyle;rounded=0;orthogonalLoop=1;jettySize=auto;html=1;exitX=0.5;exitY=1;exitDx=0;exitDy=0;" parent="1" source="FIlBFSI00tIFWNVNL5qN-48" edge="1">
          <mxGeometry relative="1" as="geometry">
            <mxPoint x="870" y="1580" as="targetPoint" />
          </mxGeometry>
        </mxCell>
        <mxCell id="FIlBFSI00tIFWNVNL5qN-48" value="case 1:" style="rhombus;whiteSpace=wrap;html=1;" parent="1" vertex="1">
          <mxGeometry x="800.01" y="1300" width="140" height="80" as="geometry" />
        </mxCell>
        <mxCell id="FIlBFSI00tIFWNVNL5qN-51" style="edgeStyle=orthogonalEdgeStyle;rounded=0;orthogonalLoop=1;jettySize=auto;html=1;exitX=1;exitY=0.5;exitDx=0;exitDy=0;" parent="1" source="FIlBFSI00tIFWNVNL5qN-52" edge="1">
          <mxGeometry relative="1" as="geometry">
            <mxPoint x="1394" y="1460" as="targetPoint" />
          </mxGeometry>
        </mxCell>
        <mxCell id="FIlBFSI00tIFWNVNL5qN-52" value="" style="verticalLabelPosition=bottom;verticalAlign=top;html=1;shape=hexagon;perimeter=hexagonPerimeter2;arcSize=6;size=0.11951219512195121;" parent="1" vertex="1">
          <mxGeometry x="1039.4714285714285" y="1390" width="205" height="50" as="geometry" />
        </mxCell>
        <mxCell id="FIlBFSI00tIFWNVNL5qN-53" value="" style="edgeStyle=orthogonalEdgeStyle;rounded=0;orthogonalLoop=1;jettySize=auto;html=1;" parent="1" edge="1">
          <mxGeometry relative="1" as="geometry">
            <mxPoint x="1143.7314285714285" y="1440" as="sourcePoint" />
            <mxPoint x="1143.9714285714285" y="1460" as="targetPoint" />
          </mxGeometry>
        </mxCell>
        <mxCell id="FIlBFSI00tIFWNVNL5qN-54" value="for (int i = 0; i &amp;lt; N; i++)" style="text;html=1;align=center;verticalAlign=middle;whiteSpace=wrap;rounded=0;" parent="1" vertex="1">
          <mxGeometry x="1080" y="1400" width="123.97" height="30" as="geometry" />
        </mxCell>
        <mxCell id="FIlBFSI00tIFWNVNL5qN-55" value="" style="edgeStyle=orthogonalEdgeStyle;rounded=0;orthogonalLoop=1;jettySize=auto;html=1;entryX=0;entryY=0.5;entryDx=0;entryDy=0;" parent="1" target="FIlBFSI00tIFWNVNL5qN-52" edge="1">
          <mxGeometry relative="1" as="geometry">
            <mxPoint x="1143.9714285714285" y="1490" as="sourcePoint" />
            <mxPoint x="1023.9714285714285" y="1460" as="targetPoint" />
            <Array as="points">
              <mxPoint x="1143.9714285714285" y="1540" />
              <mxPoint x="1019.9714285714285" y="1540" />
              <mxPoint x="1019.9714285714285" y="1415" />
            </Array>
          </mxGeometry>
        </mxCell>
        <mxCell id="FIlBFSI00tIFWNVNL5qN-56" value="cout &amp;lt;&amp;lt; a[i] &amp;lt;&amp;lt; &#39; &#39;;" style="rounded=0;whiteSpace=wrap;html=1;" parent="1" vertex="1">
          <mxGeometry x="1083.9714285714285" y="1460" width="120" height="30" as="geometry" />
        </mxCell>
        <mxCell id="FIlBFSI00tIFWNVNL5qN-58" style="edgeStyle=orthogonalEdgeStyle;rounded=0;orthogonalLoop=1;jettySize=auto;html=1;exitX=0.5;exitY=1;exitDx=0;exitDy=0;" parent="1" source="FIlBFSI00tIFWNVNL5qN-57" edge="1">
          <mxGeometry relative="1" as="geometry">
            <mxPoint x="1390" y="1530" as="targetPoint" />
          </mxGeometry>
        </mxCell>
        <mxCell id="FIlBFSI00tIFWNVNL5qN-57" value="cout &amp;lt;&amp;lt; endl;" style="shape=parallelogram;perimeter=parallelogramPerimeter;whiteSpace=wrap;html=1;fixedSize=1;" parent="1" vertex="1">
          <mxGeometry x="1310" y="1460" width="160" height="40" as="geometry" />
        </mxCell>
        <mxCell id="JD58qE1EzqoFA1zXobhS-1" style="edgeStyle=orthogonalEdgeStyle;rounded=0;orthogonalLoop=1;jettySize=auto;html=1;exitX=0.5;exitY=1;exitDx=0;exitDy=0;" edge="1" parent="1" source="FIlBFSI00tIFWNVNL5qN-59">
          <mxGeometry relative="1" as="geometry">
            <mxPoint x="880" y="2690" as="targetPoint" />
            <Array as="points">
              <mxPoint x="1390" y="1600" />
              <mxPoint x="1620" y="1600" />
              <mxPoint x="1620" y="2690" />
            </Array>
          </mxGeometry>
        </mxCell>
        <mxCell id="FIlBFSI00tIFWNVNL5qN-59" value="break;" style="rounded=0;whiteSpace=wrap;html=1;" parent="1" vertex="1">
          <mxGeometry x="1330.0014285714285" y="1530" width="120" height="30" as="geometry" />
        </mxCell>
        <mxCell id="FIlBFSI00tIFWNVNL5qN-62" style="edgeStyle=orthogonalEdgeStyle;rounded=0;orthogonalLoop=1;jettySize=auto;html=1;exitX=1;exitY=0.5;exitDx=0;exitDy=0;" parent="1" source="FIlBFSI00tIFWNVNL5qN-61" edge="1">
          <mxGeometry relative="1" as="geometry">
            <mxPoint x="980" y="1620.3333333333335" as="targetPoint" />
          </mxGeometry>
        </mxCell>
        <mxCell id="FIlBFSI00tIFWNVNL5qN-92" style="edgeStyle=orthogonalEdgeStyle;rounded=0;orthogonalLoop=1;jettySize=auto;html=1;exitX=0.5;exitY=1;exitDx=0;exitDy=0;" parent="1" source="FIlBFSI00tIFWNVNL5qN-61" edge="1">
          <mxGeometry relative="1" as="geometry">
            <mxPoint x="869.5714285714289" y="2240" as="targetPoint" />
          </mxGeometry>
        </mxCell>
        <mxCell id="FIlBFSI00tIFWNVNL5qN-61" value="case 2:" style="rhombus;whiteSpace=wrap;html=1;" parent="1" vertex="1">
          <mxGeometry x="800" y="1580" width="140" height="80" as="geometry" />
        </mxCell>
        <mxCell id="FIlBFSI00tIFWNVNL5qN-66" style="edgeStyle=orthogonalEdgeStyle;rounded=0;orthogonalLoop=1;jettySize=auto;html=1;exitX=1;exitY=0.5;exitDx=0;exitDy=0;entryX=0.5;entryY=0;entryDx=0;entryDy=0;" parent="1" source="FIlBFSI00tIFWNVNL5qN-63" target="FIlBFSI00tIFWNVNL5qN-67" edge="1">
          <mxGeometry relative="1" as="geometry">
            <mxPoint x="1240" y="1640" as="targetPoint" />
          </mxGeometry>
        </mxCell>
        <mxCell id="FIlBFSI00tIFWNVNL5qN-63" value="int index;" style="rounded=0;whiteSpace=wrap;html=1;" parent="1" vertex="1">
          <mxGeometry x="980.0014285714285" y="1605" width="120" height="30" as="geometry" />
        </mxCell>
        <mxCell id="FIlBFSI00tIFWNVNL5qN-70" style="edgeStyle=orthogonalEdgeStyle;rounded=0;orthogonalLoop=1;jettySize=auto;html=1;exitX=0.5;exitY=1;exitDx=0;exitDy=0;entryX=0.5;entryY=0;entryDx=0;entryDy=0;" parent="1" source="FIlBFSI00tIFWNVNL5qN-67" target="FIlBFSI00tIFWNVNL5qN-69" edge="1">
          <mxGeometry relative="1" as="geometry" />
        </mxCell>
        <mxCell id="FIlBFSI00tIFWNVNL5qN-67" value="do&amp;nbsp;" style="rounded=0;whiteSpace=wrap;html=1;" parent="1" vertex="1">
          <mxGeometry x="1181.0014285714285" y="1650" width="120" height="30" as="geometry" />
        </mxCell>
        <mxCell id="FIlBFSI00tIFWNVNL5qN-71" style="edgeStyle=orthogonalEdgeStyle;rounded=0;orthogonalLoop=1;jettySize=auto;html=1;exitX=0.5;exitY=1;exitDx=0;exitDy=0;" parent="1" source="FIlBFSI00tIFWNVNL5qN-69" edge="1">
          <mxGeometry relative="1" as="geometry">
            <mxPoint x="1240" y="1770" as="targetPoint" />
          </mxGeometry>
        </mxCell>
        <mxCell id="FIlBFSI00tIFWNVNL5qN-69" value="cout &amp;lt;&amp;lt; &quot;Введите с какого индекса начинать вывод: &quot;;" style="shape=parallelogram;perimeter=parallelogramPerimeter;whiteSpace=wrap;html=1;fixedSize=1;" parent="1" vertex="1">
          <mxGeometry x="1130" y="1710" width="220" height="40" as="geometry" />
        </mxCell>
        <mxCell id="FIlBFSI00tIFWNVNL5qN-74" style="edgeStyle=orthogonalEdgeStyle;rounded=0;orthogonalLoop=1;jettySize=auto;html=1;exitX=0.5;exitY=1;exitDx=0;exitDy=0;" parent="1" source="FIlBFSI00tIFWNVNL5qN-72" target="FIlBFSI00tIFWNVNL5qN-73" edge="1">
          <mxGeometry relative="1" as="geometry" />
        </mxCell>
        <mxCell id="FIlBFSI00tIFWNVNL5qN-72" value="cin &amp;gt;&amp;gt; index;" style="shape=parallelogram;perimeter=parallelogramPerimeter;whiteSpace=wrap;html=1;fixedSize=1;" parent="1" vertex="1">
          <mxGeometry x="1130" y="1770" width="220" height="40" as="geometry" />
        </mxCell>
        <mxCell id="FIlBFSI00tIFWNVNL5qN-75" style="edgeStyle=orthogonalEdgeStyle;rounded=0;orthogonalLoop=1;jettySize=auto;html=1;exitX=0;exitY=0.5;exitDx=0;exitDy=0;" parent="1" source="FIlBFSI00tIFWNVNL5qN-73" edge="1">
          <mxGeometry relative="1" as="geometry">
            <mxPoint x="1120" y="1930" as="targetPoint" />
          </mxGeometry>
        </mxCell>
        <mxCell id="FIlBFSI00tIFWNVNL5qN-78" style="edgeStyle=orthogonalEdgeStyle;rounded=0;orthogonalLoop=1;jettySize=auto;html=1;exitX=1;exitY=0.5;exitDx=0;exitDy=0;" parent="1" source="FIlBFSI00tIFWNVNL5qN-73" edge="1">
          <mxGeometry relative="1" as="geometry">
            <mxPoint x="1250" y="1990" as="targetPoint" />
            <Array as="points">
              <mxPoint x="1350" y="1880" />
              <mxPoint x="1350" y="1990" />
            </Array>
          </mxGeometry>
        </mxCell>
        <mxCell id="FIlBFSI00tIFWNVNL5qN-73" value="if (index &amp;lt; 0 || index &amp;gt; N - 1)" style="rhombus;whiteSpace=wrap;html=1;" parent="1" vertex="1">
          <mxGeometry x="1150" y="1840" width="180" height="80" as="geometry" />
        </mxCell>
        <mxCell id="FIlBFSI00tIFWNVNL5qN-79" style="edgeStyle=orthogonalEdgeStyle;rounded=0;orthogonalLoop=1;jettySize=auto;html=1;exitX=0.5;exitY=1;exitDx=0;exitDy=0;" parent="1" source="FIlBFSI00tIFWNVNL5qN-76" edge="1">
          <mxGeometry relative="1" as="geometry">
            <mxPoint x="1250" y="1990" as="targetPoint" />
          </mxGeometry>
        </mxCell>
        <mxCell id="FIlBFSI00tIFWNVNL5qN-76" value="cout &amp;lt;&amp;lt; &quot;Неверный индекс!&quot; &amp;lt;&amp;lt; endl;" style="shape=parallelogram;perimeter=parallelogramPerimeter;whiteSpace=wrap;html=1;fixedSize=1;" parent="1" vertex="1">
          <mxGeometry x="1010" y="1930" width="230" height="40" as="geometry" />
        </mxCell>
        <mxCell id="FIlBFSI00tIFWNVNL5qN-80" value="1" style="text;html=1;align=center;verticalAlign=middle;resizable=0;points=[];autosize=1;strokeColor=none;fillColor=none;" parent="1" vertex="1">
          <mxGeometry x="1145" y="1838" width="30" height="30" as="geometry" />
        </mxCell>
        <mxCell id="FIlBFSI00tIFWNVNL5qN-81" value="0" style="text;html=1;align=center;verticalAlign=middle;resizable=0;points=[];autosize=1;strokeColor=none;fillColor=none;" parent="1" vertex="1">
          <mxGeometry x="1305" y="1838" width="30" height="30" as="geometry" />
        </mxCell>
        <mxCell id="FIlBFSI00tIFWNVNL5qN-84" style="edgeStyle=orthogonalEdgeStyle;rounded=0;orthogonalLoop=1;jettySize=auto;html=1;exitX=0.5;exitY=1;exitDx=0;exitDy=0;" parent="1" source="FIlBFSI00tIFWNVNL5qN-82" edge="1">
          <mxGeometry relative="1" as="geometry">
            <mxPoint x="1240" y="1690" as="targetPoint" />
            <Array as="points">
              <mxPoint x="1245" y="2120" />
              <mxPoint x="1000" y="2120" />
              <mxPoint x="1000" y="1690" />
            </Array>
          </mxGeometry>
        </mxCell>
        <mxCell id="FIlBFSI00tIFWNVNL5qN-88" style="edgeStyle=orthogonalEdgeStyle;rounded=0;orthogonalLoop=1;jettySize=auto;html=1;exitX=1;exitY=0.5;exitDx=0;exitDy=0;" parent="1" source="FIlBFSI00tIFWNVNL5qN-82" edge="1">
          <mxGeometry relative="1" as="geometry">
            <mxPoint x="1420" y="2120" as="targetPoint" />
          </mxGeometry>
        </mxCell>
        <mxCell id="FIlBFSI00tIFWNVNL5qN-82" value="&amp;nbsp;while (index &amp;lt; 0 || index &amp;gt; N - 1);" style="rhombus;whiteSpace=wrap;html=1;" parent="1" vertex="1">
          <mxGeometry x="1130" y="2020" width="230" height="80" as="geometry" />
        </mxCell>
        <mxCell id="FIlBFSI00tIFWNVNL5qN-83" style="edgeStyle=orthogonalEdgeStyle;rounded=0;orthogonalLoop=1;jettySize=auto;html=1;exitX=0.5;exitY=1;exitDx=0;exitDy=0;" parent="1" edge="1">
          <mxGeometry relative="1" as="geometry">
            <mxPoint x="1249.66" y="1990" as="sourcePoint" />
            <mxPoint x="1249.66" y="2020" as="targetPoint" />
          </mxGeometry>
        </mxCell>
        <mxCell id="FIlBFSI00tIFWNVNL5qN-85" value="1" style="text;html=1;align=center;verticalAlign=middle;resizable=0;points=[];autosize=1;strokeColor=none;fillColor=none;" parent="1" vertex="1">
          <mxGeometry x="1185" y="2088" width="30" height="30" as="geometry" />
        </mxCell>
        <mxCell id="FIlBFSI00tIFWNVNL5qN-87" value="0" style="text;html=1;align=center;verticalAlign=middle;resizable=0;points=[];autosize=1;strokeColor=none;fillColor=none;" parent="1" vertex="1">
          <mxGeometry x="1355" y="2018" width="30" height="30" as="geometry" />
        </mxCell>
        <mxCell id="FIlBFSI00tIFWNVNL5qN-91" style="edgeStyle=orthogonalEdgeStyle;rounded=0;orthogonalLoop=1;jettySize=auto;html=1;exitX=0.5;exitY=1;exitDx=0;exitDy=0;entryX=0.5;entryY=0;entryDx=0;entryDy=0;" parent="1" source="FIlBFSI00tIFWNVNL5qN-89" target="FIlBFSI00tIFWNVNL5qN-90" edge="1">
          <mxGeometry relative="1" as="geometry" />
        </mxCell>
        <mxCell id="FIlBFSI00tIFWNVNL5qN-89" value="ring(a, N, index);" style="rounded=0;whiteSpace=wrap;html=1;" parent="1" vertex="1">
          <mxGeometry x="1355.0014285714285" y="2118" width="120" height="30" as="geometry" />
        </mxCell>
        <mxCell id="FIlBFSI00tIFWNVNL5qN-90" value="break;" style="rounded=0;whiteSpace=wrap;html=1;" parent="1" vertex="1">
          <mxGeometry x="1360.0014285714285" y="2170" width="120" height="30" as="geometry" />
        </mxCell>
        <mxCell id="FIlBFSI00tIFWNVNL5qN-94" style="edgeStyle=orthogonalEdgeStyle;rounded=0;orthogonalLoop=1;jettySize=auto;html=1;exitX=1;exitY=0.5;exitDx=0;exitDy=0;" parent="1" source="FIlBFSI00tIFWNVNL5qN-93" edge="1">
          <mxGeometry relative="1" as="geometry">
            <mxPoint x="980" y="2279.666666666667" as="targetPoint" />
          </mxGeometry>
        </mxCell>
        <mxCell id="FIlBFSI00tIFWNVNL5qN-100" style="edgeStyle=orthogonalEdgeStyle;rounded=0;orthogonalLoop=1;jettySize=auto;html=1;exitX=0.5;exitY=1;exitDx=0;exitDy=0;" parent="1" source="FIlBFSI00tIFWNVNL5qN-93" edge="1">
          <mxGeometry relative="1" as="geometry">
            <mxPoint x="869.9473684210529" y="2360" as="targetPoint" />
          </mxGeometry>
        </mxCell>
        <mxCell id="FIlBFSI00tIFWNVNL5qN-93" value="case 3:" style="rhombus;whiteSpace=wrap;html=1;" parent="1" vertex="1">
          <mxGeometry x="800" y="2240" width="140" height="80" as="geometry" />
        </mxCell>
        <mxCell id="FIlBFSI00tIFWNVNL5qN-96" style="edgeStyle=orthogonalEdgeStyle;rounded=0;orthogonalLoop=1;jettySize=auto;html=1;exitX=1;exitY=0.5;exitDx=0;exitDy=0;" parent="1" source="FIlBFSI00tIFWNVNL5qN-95" edge="1">
          <mxGeometry relative="1" as="geometry">
            <mxPoint x="1140" y="2279.666666666667" as="targetPoint" />
          </mxGeometry>
        </mxCell>
        <mxCell id="FIlBFSI00tIFWNVNL5qN-95" value="del_el(a, N);" style="rounded=0;whiteSpace=wrap;html=1;" parent="1" vertex="1">
          <mxGeometry x="980.0014285714285" y="2265" width="120" height="30" as="geometry" />
        </mxCell>
        <mxCell id="FIlBFSI00tIFWNVNL5qN-98" style="edgeStyle=orthogonalEdgeStyle;rounded=0;orthogonalLoop=1;jettySize=auto;html=1;exitX=1;exitY=0.5;exitDx=0;exitDy=0;" parent="1" source="FIlBFSI00tIFWNVNL5qN-97" edge="1">
          <mxGeometry relative="1" as="geometry">
            <mxPoint x="1390" y="2279.666666666667" as="targetPoint" />
          </mxGeometry>
        </mxCell>
        <mxCell id="FIlBFSI00tIFWNVNL5qN-97" value="cout &amp;lt;&amp;lt; &quot;Элементы удалены!&quot; &amp;lt;&amp;lt; endl;" style="shape=parallelogram;perimeter=parallelogramPerimeter;whiteSpace=wrap;html=1;fixedSize=1;" parent="1" vertex="1">
          <mxGeometry x="1130" y="2260" width="240" height="40" as="geometry" />
        </mxCell>
        <mxCell id="FIlBFSI00tIFWNVNL5qN-99" value="break;" style="rounded=0;whiteSpace=wrap;html=1;" parent="1" vertex="1">
          <mxGeometry x="1385.0014285714285" y="2265" width="120" height="30" as="geometry" />
        </mxCell>
        <mxCell id="FIlBFSI00tIFWNVNL5qN-103" style="edgeStyle=orthogonalEdgeStyle;rounded=0;orthogonalLoop=1;jettySize=auto;html=1;exitX=1;exitY=0.5;exitDx=0;exitDy=0;" parent="1" source="FIlBFSI00tIFWNVNL5qN-101" edge="1">
          <mxGeometry relative="1" as="geometry">
            <mxPoint x="960" y="2399.9565217391305" as="targetPoint" />
          </mxGeometry>
        </mxCell>
        <mxCell id="FIlBFSI00tIFWNVNL5qN-101" value="case 4:" style="rhombus;whiteSpace=wrap;html=1;" parent="1" vertex="1">
          <mxGeometry x="802.24" y="2360" width="140" height="80" as="geometry" />
        </mxCell>
        <mxCell id="FIlBFSI00tIFWNVNL5qN-105" value="bubble_sort(a, N);" style="rounded=0;whiteSpace=wrap;html=1;" parent="1" vertex="1">
          <mxGeometry x="960.0014285714285" y="2385" width="120" height="30" as="geometry" />
        </mxCell>
        <mxCell id="FIlBFSI00tIFWNVNL5qN-106" style="edgeStyle=orthogonalEdgeStyle;rounded=0;orthogonalLoop=1;jettySize=auto;html=1;exitX=1;exitY=0.5;exitDx=0;exitDy=0;" parent="1" edge="1">
          <mxGeometry relative="1" as="geometry">
            <mxPoint x="1110" y="2399.666666666667" as="targetPoint" />
            <mxPoint x="1080" y="2400" as="sourcePoint" />
          </mxGeometry>
        </mxCell>
        <mxCell id="FIlBFSI00tIFWNVNL5qN-107" value="break;" style="rounded=0;whiteSpace=wrap;html=1;" parent="1" vertex="1">
          <mxGeometry x="1105.0014285714285" y="2385" width="120" height="30" as="geometry" />
        </mxCell>
        <mxCell id="FIlBFSI00tIFWNVNL5qN-108" style="edgeStyle=orthogonalEdgeStyle;rounded=0;orthogonalLoop=1;jettySize=auto;html=1;exitX=0.5;exitY=1;exitDx=0;exitDy=0;" parent="1" edge="1">
          <mxGeometry relative="1" as="geometry">
            <mxPoint x="873.297368421053" y="2480" as="targetPoint" />
            <mxPoint x="873.35" y="2440" as="sourcePoint" />
          </mxGeometry>
        </mxCell>
        <mxCell id="FIlBFSI00tIFWNVNL5qN-109" style="edgeStyle=orthogonalEdgeStyle;rounded=0;orthogonalLoop=1;jettySize=auto;html=1;exitX=1;exitY=0.5;exitDx=0;exitDy=0;" parent="1" source="FIlBFSI00tIFWNVNL5qN-110" edge="1">
          <mxGeometry relative="1" as="geometry">
            <mxPoint x="963.35" y="2519.9565217391305" as="targetPoint" />
          </mxGeometry>
        </mxCell>
        <mxCell id="FIlBFSI00tIFWNVNL5qN-110" value="case 5:" style="rhombus;whiteSpace=wrap;html=1;" parent="1" vertex="1">
          <mxGeometry x="805.59" y="2480" width="140" height="80" as="geometry" />
        </mxCell>
        <mxCell id="FIlBFSI00tIFWNVNL5qN-111" value="cout &amp;lt;&amp;lt; &quot;Выход...&quot;;" style="shape=parallelogram;perimeter=parallelogramPerimeter;whiteSpace=wrap;html=1;fixedSize=1;" parent="1" vertex="1">
          <mxGeometry x="950" y="2500" width="240" height="40" as="geometry" />
        </mxCell>
        <mxCell id="FIlBFSI00tIFWNVNL5qN-112" style="edgeStyle=orthogonalEdgeStyle;rounded=0;orthogonalLoop=1;jettySize=auto;html=1;exitX=1;exitY=0.5;exitDx=0;exitDy=0;" parent="1" edge="1">
          <mxGeometry relative="1" as="geometry">
            <mxPoint x="1207.5" y="2519.666666666667" as="targetPoint" />
            <mxPoint x="1177.5" y="2520" as="sourcePoint" />
          </mxGeometry>
        </mxCell>
        <mxCell id="FIlBFSI00tIFWNVNL5qN-113" value="break;" style="rounded=0;whiteSpace=wrap;html=1;" parent="1" vertex="1">
          <mxGeometry x="1202.5014285714285" y="2505" width="120" height="30" as="geometry" />
        </mxCell>
        <mxCell id="FIlBFSI00tIFWNVNL5qN-114" style="edgeStyle=orthogonalEdgeStyle;rounded=0;orthogonalLoop=1;jettySize=auto;html=1;exitX=0.5;exitY=1;exitDx=0;exitDy=0;" parent="1" edge="1">
          <mxGeometry relative="1" as="geometry">
            <mxPoint x="877.7073684210529" y="2600" as="targetPoint" />
            <mxPoint x="877.76" y="2560" as="sourcePoint" />
          </mxGeometry>
        </mxCell>
        <mxCell id="FIlBFSI00tIFWNVNL5qN-115" style="edgeStyle=orthogonalEdgeStyle;rounded=0;orthogonalLoop=1;jettySize=auto;html=1;exitX=1;exitY=0.5;exitDx=0;exitDy=0;" parent="1" source="FIlBFSI00tIFWNVNL5qN-116" edge="1">
          <mxGeometry relative="1" as="geometry">
            <mxPoint x="967.76" y="2639.9565217391305" as="targetPoint" />
          </mxGeometry>
        </mxCell>
        <mxCell id="FIlBFSI00tIFWNVNL5qN-121" style="edgeStyle=orthogonalEdgeStyle;rounded=0;orthogonalLoop=1;jettySize=auto;html=1;exitX=0.5;exitY=1;exitDx=0;exitDy=0;" parent="1" source="FIlBFSI00tIFWNVNL5qN-116" edge="1">
          <mxGeometry relative="1" as="geometry">
            <mxPoint x="880.4736842105262" y="2710" as="targetPoint" />
          </mxGeometry>
        </mxCell>
        <mxCell id="FIlBFSI00tIFWNVNL5qN-116" value="default:" style="rhombus;whiteSpace=wrap;html=1;" parent="1" vertex="1">
          <mxGeometry x="810" y="2600" width="140" height="80" as="geometry" />
        </mxCell>
        <mxCell id="FIlBFSI00tIFWNVNL5qN-117" value="&quot;Неверный выбор! Попробуйте снова&quot;;" style="shape=parallelogram;perimeter=parallelogramPerimeter;whiteSpace=wrap;html=1;fixedSize=1;" parent="1" vertex="1">
          <mxGeometry x="960" y="2620" width="240" height="40" as="geometry" />
        </mxCell>
        <mxCell id="FIlBFSI00tIFWNVNL5qN-118" style="edgeStyle=orthogonalEdgeStyle;rounded=0;orthogonalLoop=1;jettySize=auto;html=1;exitX=1;exitY=0.5;exitDx=0;exitDy=0;" parent="1" edge="1">
          <mxGeometry relative="1" as="geometry">
            <mxPoint x="1220" y="2639.666666666667" as="targetPoint" />
            <mxPoint x="1190" y="2640" as="sourcePoint" />
          </mxGeometry>
        </mxCell>
        <mxCell id="FIlBFSI00tIFWNVNL5qN-119" value="break;" style="rounded=0;whiteSpace=wrap;html=1;" parent="1" vertex="1">
          <mxGeometry x="1215.0014285714285" y="2625" width="120" height="30" as="geometry" />
        </mxCell>
        <mxCell id="FIlBFSI00tIFWNVNL5qN-123" style="edgeStyle=orthogonalEdgeStyle;rounded=0;orthogonalLoop=1;jettySize=auto;html=1;exitX=0.5;exitY=1;exitDx=0;exitDy=0;" parent="1" source="FIlBFSI00tIFWNVNL5qN-122" edge="1">
          <mxGeometry relative="1" as="geometry">
            <mxPoint x="870" y="673.8461538461538" as="targetPoint" />
            <Array as="points">
              <mxPoint x="880" y="2810" />
              <mxPoint x="680" y="2810" />
              <mxPoint x="680" y="674" />
            </Array>
          </mxGeometry>
        </mxCell>
        <mxCell id="FIlBFSI00tIFWNVNL5qN-124" style="edgeStyle=orthogonalEdgeStyle;rounded=0;orthogonalLoop=1;jettySize=auto;html=1;exitX=1;exitY=0.5;exitDx=0;exitDy=0;" parent="1" source="FIlBFSI00tIFWNVNL5qN-122" edge="1">
          <mxGeometry relative="1" as="geometry">
            <mxPoint x="1080" y="2800" as="targetPoint" />
          </mxGeometry>
        </mxCell>
        <mxCell id="FIlBFSI00tIFWNVNL5qN-122" value="&amp;nbsp;while (user != 5);" style="rhombus;whiteSpace=wrap;html=1;" parent="1" vertex="1">
          <mxGeometry x="810" y="2710" width="140" height="80" as="geometry" />
        </mxCell>
        <mxCell id="FIlBFSI00tIFWNVNL5qN-125" value="return 0;" style="ellipse;whiteSpace=wrap;html=1;" parent="1" vertex="1">
          <mxGeometry x="1030" y="2800" width="120" height="80" as="geometry" />
        </mxCell>
        <mxCell id="FIlBFSI00tIFWNVNL5qN-126" value="1" style="text;html=1;align=center;verticalAlign=middle;resizable=0;points=[];autosize=1;strokeColor=none;fillColor=none;" parent="1" vertex="1">
          <mxGeometry x="835" y="2778" width="30" height="30" as="geometry" />
        </mxCell>
        <mxCell id="FIlBFSI00tIFWNVNL5qN-127" value="0" style="text;html=1;align=center;verticalAlign=middle;resizable=0;points=[];autosize=1;strokeColor=none;fillColor=none;" parent="1" vertex="1">
          <mxGeometry x="955" y="2718" width="30" height="30" as="geometry" />
        </mxCell>
        <mxCell id="FIlBFSI00tIFWNVNL5qN-129" style="edgeStyle=orthogonalEdgeStyle;rounded=0;orthogonalLoop=1;jettySize=auto;html=1;exitX=0.5;exitY=1;exitDx=0;exitDy=0;" parent="1" source="FIlBFSI00tIFWNVNL5qN-128" edge="1">
          <mxGeometry relative="1" as="geometry">
            <mxPoint x="1415" y="110" as="targetPoint" />
          </mxGeometry>
        </mxCell>
        <mxCell id="FIlBFSI00tIFWNVNL5qN-128" value="void bubble_sort(int a[], int N)" style="shape=process;whiteSpace=wrap;html=1;backgroundOutline=1;" parent="1" vertex="1">
          <mxGeometry x="1310" y="60" width="210" height="30" as="geometry" />
        </mxCell>
        <mxCell id="FIlBFSI00tIFWNVNL5qN-153" style="edgeStyle=orthogonalEdgeStyle;rounded=0;orthogonalLoop=1;jettySize=auto;html=1;exitX=1;exitY=0.5;exitDx=0;exitDy=0;" parent="1" source="FIlBFSI00tIFWNVNL5qN-130" edge="1">
          <mxGeometry relative="1" as="geometry">
            <mxPoint x="1680" y="180" as="targetPoint" />
          </mxGeometry>
        </mxCell>
        <mxCell id="FIlBFSI00tIFWNVNL5qN-130" value="" style="verticalLabelPosition=bottom;verticalAlign=top;html=1;shape=hexagon;perimeter=hexagonPerimeter2;arcSize=6;size=0.11951219512195121;" parent="1" vertex="1">
          <mxGeometry x="1319.442857142857" y="110" width="205" height="50" as="geometry" />
        </mxCell>
        <mxCell id="FIlBFSI00tIFWNVNL5qN-131" value="" style="edgeStyle=orthogonalEdgeStyle;rounded=0;orthogonalLoop=1;jettySize=auto;html=1;" parent="1" edge="1">
          <mxGeometry relative="1" as="geometry">
            <mxPoint x="1423.702857142857" y="160" as="sourcePoint" />
            <mxPoint x="1423.942857142857" y="180" as="targetPoint" />
          </mxGeometry>
        </mxCell>
        <mxCell id="FIlBFSI00tIFWNVNL5qN-132" value="for (int i = 0; i &amp;lt; N; i++)" style="text;html=1;align=center;verticalAlign=middle;whiteSpace=wrap;rounded=0;" parent="1" vertex="1">
          <mxGeometry x="1350" y="120" width="133.94" height="30" as="geometry" />
        </mxCell>
        <mxCell id="FIlBFSI00tIFWNVNL5qN-133" value="" style="edgeStyle=orthogonalEdgeStyle;rounded=0;orthogonalLoop=1;jettySize=auto;html=1;" parent="1" edge="1">
          <mxGeometry relative="1" as="geometry">
            <mxPoint x="1423.942857142857" y="160" as="sourcePoint" />
            <mxPoint x="1423.942857142857" y="180" as="targetPoint" />
          </mxGeometry>
        </mxCell>
        <mxCell id="FIlBFSI00tIFWNVNL5qN-152" style="edgeStyle=orthogonalEdgeStyle;rounded=0;orthogonalLoop=1;jettySize=auto;html=1;exitX=1;exitY=0.5;exitDx=0;exitDy=0;entryX=0;entryY=0.5;entryDx=0;entryDy=0;" parent="1" source="FIlBFSI00tIFWNVNL5qN-135" target="FIlBFSI00tIFWNVNL5qN-130" edge="1">
          <mxGeometry relative="1" as="geometry">
            <Array as="points">
              <mxPoint x="1544" y="205" />
              <mxPoint x="1544" y="550" />
              <mxPoint x="1180" y="550" />
              <mxPoint x="1180" y="135" />
            </Array>
          </mxGeometry>
        </mxCell>
        <mxCell id="FIlBFSI00tIFWNVNL5qN-135" value="" style="verticalLabelPosition=bottom;verticalAlign=top;html=1;shape=hexagon;perimeter=hexagonPerimeter2;arcSize=6;size=0.11951219512195121;" parent="1" vertex="1">
          <mxGeometry x="1319.442857142857" y="180" width="205" height="50" as="geometry" />
        </mxCell>
        <mxCell id="FIlBFSI00tIFWNVNL5qN-136" value="" style="edgeStyle=orthogonalEdgeStyle;rounded=0;orthogonalLoop=1;jettySize=auto;html=1;" parent="1" edge="1">
          <mxGeometry relative="1" as="geometry">
            <mxPoint x="1423.702857142857" y="230" as="sourcePoint" />
            <mxPoint x="1423.942857142857" y="250" as="targetPoint" />
          </mxGeometry>
        </mxCell>
        <mxCell id="FIlBFSI00tIFWNVNL5qN-137" value="for (int j = N - 1; j &amp;gt; i; j--)" style="text;html=1;align=center;verticalAlign=middle;whiteSpace=wrap;rounded=0;" parent="1" vertex="1">
          <mxGeometry x="1340" y="190" width="159.97" height="30" as="geometry" />
        </mxCell>
        <mxCell id="FIlBFSI00tIFWNVNL5qN-141" style="edgeStyle=orthogonalEdgeStyle;rounded=0;orthogonalLoop=1;jettySize=auto;html=1;exitX=0;exitY=0.5;exitDx=0;exitDy=0;" parent="1" source="FIlBFSI00tIFWNVNL5qN-140" edge="1">
          <mxGeometry relative="1" as="geometry">
            <mxPoint x="1310" y="340" as="targetPoint" />
          </mxGeometry>
        </mxCell>
        <mxCell id="FIlBFSI00tIFWNVNL5qN-147" style="edgeStyle=orthogonalEdgeStyle;rounded=0;orthogonalLoop=1;jettySize=auto;html=1;exitX=1;exitY=0.5;exitDx=0;exitDy=0;" parent="1" source="FIlBFSI00tIFWNVNL5qN-140" edge="1">
          <mxGeometry relative="1" as="geometry">
            <mxPoint x="1430" y="490" as="targetPoint" />
            <Array as="points">
              <mxPoint x="1510" y="290" />
              <mxPoint x="1510" y="490" />
            </Array>
          </mxGeometry>
        </mxCell>
        <mxCell id="FIlBFSI00tIFWNVNL5qN-140" value="if (a[j - 1] &amp;lt; a[j])" style="rhombus;whiteSpace=wrap;html=1;" parent="1" vertex="1">
          <mxGeometry x="1360" y="250" width="130" height="80" as="geometry" />
        </mxCell>
        <mxCell id="FIlBFSI00tIFWNVNL5qN-142" value="int temp = a[j];" style="rounded=0;whiteSpace=wrap;html=1;" parent="1" vertex="1">
          <mxGeometry x="1250" y="340" width="120" height="30" as="geometry" />
        </mxCell>
        <mxCell id="FIlBFSI00tIFWNVNL5qN-143" value="a[j] = a[j - 1];" style="rounded=0;whiteSpace=wrap;html=1;" parent="1" vertex="1">
          <mxGeometry x="1244.47" y="390" width="120" height="30" as="geometry" />
        </mxCell>
        <mxCell id="FIlBFSI00tIFWNVNL5qN-144" style="edgeStyle=orthogonalEdgeStyle;rounded=0;orthogonalLoop=1;jettySize=auto;html=1;exitX=0.5;exitY=1;exitDx=0;exitDy=0;entryX=0.545;entryY=-0.085;entryDx=0;entryDy=0;entryPerimeter=0;" parent="1" source="FIlBFSI00tIFWNVNL5qN-142" target="FIlBFSI00tIFWNVNL5qN-143" edge="1">
          <mxGeometry relative="1" as="geometry" />
        </mxCell>
        <mxCell id="FIlBFSI00tIFWNVNL5qN-148" style="edgeStyle=orthogonalEdgeStyle;rounded=0;orthogonalLoop=1;jettySize=auto;html=1;exitX=0.5;exitY=1;exitDx=0;exitDy=0;" parent="1" source="FIlBFSI00tIFWNVNL5qN-145" edge="1">
          <mxGeometry relative="1" as="geometry">
            <mxPoint x="1430" y="490" as="targetPoint" />
            <Array as="points">
              <mxPoint x="1304" y="490" />
            </Array>
          </mxGeometry>
        </mxCell>
        <mxCell id="FIlBFSI00tIFWNVNL5qN-145" value="a[j - 1] = temp;" style="rounded=0;whiteSpace=wrap;html=1;" parent="1" vertex="1">
          <mxGeometry x="1244.47" y="440" width="120" height="30" as="geometry" />
        </mxCell>
        <mxCell id="FIlBFSI00tIFWNVNL5qN-146" style="edgeStyle=orthogonalEdgeStyle;rounded=0;orthogonalLoop=1;jettySize=auto;html=1;exitX=0.5;exitY=1;exitDx=0;exitDy=0;entryX=0.545;entryY=-0.085;entryDx=0;entryDy=0;entryPerimeter=0;" parent="1" target="FIlBFSI00tIFWNVNL5qN-145" edge="1">
          <mxGeometry relative="1" as="geometry">
            <mxPoint x="1310" y="420" as="sourcePoint" />
          </mxGeometry>
        </mxCell>
        <mxCell id="FIlBFSI00tIFWNVNL5qN-151" value="" style="endArrow=classic;html=1;rounded=0;entryX=0;entryY=0.5;entryDx=0;entryDy=0;" parent="1" target="FIlBFSI00tIFWNVNL5qN-135" edge="1">
          <mxGeometry width="50" height="50" relative="1" as="geometry">
            <mxPoint x="1430" y="490" as="sourcePoint" />
            <mxPoint x="1480" y="440" as="targetPoint" />
            <Array as="points">
              <mxPoint x="1430" y="520" />
              <mxPoint x="1200" y="520" />
              <mxPoint x="1200" y="205" />
            </Array>
          </mxGeometry>
        </mxCell>
        <mxCell id="FIlBFSI00tIFWNVNL5qN-154" value="cout &amp;lt;&amp;lt; &quot;Элементы упорядочены по&amp;nbsp;&lt;div&gt;убыванию!&quot; &amp;lt;&amp;lt; endl;&lt;/div&gt;" style="shape=parallelogram;perimeter=parallelogramPerimeter;whiteSpace=wrap;html=1;fixedSize=1;" parent="1" vertex="1">
          <mxGeometry x="1560" y="180" width="240" height="40" as="geometry" />
        </mxCell>
        <mxCell id="FIlBFSI00tIFWNVNL5qN-156" style="edgeStyle=orthogonalEdgeStyle;rounded=0;orthogonalLoop=1;jettySize=auto;html=1;exitX=0.5;exitY=1;exitDx=0;exitDy=0;" parent="1" source="FIlBFSI00tIFWNVNL5qN-155" edge="1">
          <mxGeometry relative="1" as="geometry">
            <mxPoint x="1715.25" y="660" as="targetPoint" />
          </mxGeometry>
        </mxCell>
        <mxCell id="FIlBFSI00tIFWNVNL5qN-155" value="void del_el(int a[], int &amp;amp;N)" style="shape=process;whiteSpace=wrap;html=1;backgroundOutline=1;" parent="1" vertex="1">
          <mxGeometry x="1610" y="600" width="210" height="30" as="geometry" />
        </mxCell>
        <mxCell id="FIlBFSI00tIFWNVNL5qN-157" value="int j = 0;&amp;nbsp;" style="rounded=0;whiteSpace=wrap;html=1;" parent="1" vertex="1">
          <mxGeometry x="1655" y="660" width="120" height="30" as="geometry" />
        </mxCell>
        <mxCell id="FIlBFSI00tIFWNVNL5qN-158" value="" style="edgeStyle=orthogonalEdgeStyle;rounded=0;orthogonalLoop=1;jettySize=auto;html=1;" parent="1" edge="1">
          <mxGeometry relative="1" as="geometry">
            <mxPoint x="1713.9714285714285" y="690" as="sourcePoint" />
            <mxPoint x="1713.9714285714285" y="710" as="targetPoint" />
          </mxGeometry>
        </mxCell>
        <mxCell id="FIlBFSI00tIFWNVNL5qN-159" style="edgeStyle=orthogonalEdgeStyle;rounded=0;orthogonalLoop=1;jettySize=auto;html=1;exitX=1;exitY=0.5;exitDx=0;exitDy=0;" parent="1" source="FIlBFSI00tIFWNVNL5qN-160" edge="1">
          <mxGeometry relative="1" as="geometry">
            <mxPoint x="1963.9714285714285" y="820" as="targetPoint" />
          </mxGeometry>
        </mxCell>
        <mxCell id="FIlBFSI00tIFWNVNL5qN-160" value="" style="verticalLabelPosition=bottom;verticalAlign=top;html=1;shape=hexagon;perimeter=hexagonPerimeter2;arcSize=6;size=0.11951219512195121;" parent="1" vertex="1">
          <mxGeometry x="1609.4714285714285" y="710" width="205" height="50" as="geometry" />
        </mxCell>
        <mxCell id="FIlBFSI00tIFWNVNL5qN-161" value="" style="edgeStyle=orthogonalEdgeStyle;rounded=0;orthogonalLoop=1;jettySize=auto;html=1;" parent="1" edge="1">
          <mxGeometry relative="1" as="geometry">
            <mxPoint x="1713.7314285714285" y="760" as="sourcePoint" />
            <mxPoint x="1713.9714285714285" y="780" as="targetPoint" />
          </mxGeometry>
        </mxCell>
        <mxCell id="FIlBFSI00tIFWNVNL5qN-162" value="for (int i = 0; i &amp;lt; n; i++)" style="text;html=1;align=center;verticalAlign=middle;whiteSpace=wrap;rounded=0;" parent="1" vertex="1">
          <mxGeometry x="1653.9714285714285" y="720" width="120" height="30" as="geometry" />
        </mxCell>
        <mxCell id="FIlBFSI00tIFWNVNL5qN-167" style="edgeStyle=orthogonalEdgeStyle;rounded=0;orthogonalLoop=1;jettySize=auto;html=1;exitX=0;exitY=0.5;exitDx=0;exitDy=0;" parent="1" source="FIlBFSI00tIFWNVNL5qN-169" edge="1">
          <mxGeometry relative="1" as="geometry">
            <mxPoint x="1600" y="870" as="targetPoint" />
          </mxGeometry>
        </mxCell>
        <mxCell id="FIlBFSI00tIFWNVNL5qN-168" style="edgeStyle=orthogonalEdgeStyle;rounded=0;orthogonalLoop=1;jettySize=auto;html=1;exitX=1;exitY=0.5;exitDx=0;exitDy=0;" parent="1" source="FIlBFSI00tIFWNVNL5qN-169" edge="1">
          <mxGeometry relative="1" as="geometry">
            <mxPoint x="1720" y="1020" as="targetPoint" />
            <Array as="points">
              <mxPoint x="1800" y="820" />
              <mxPoint x="1800" y="1020" />
            </Array>
          </mxGeometry>
        </mxCell>
        <mxCell id="FIlBFSI00tIFWNVNL5qN-169" value="if (a[i] % 2 == 0)&amp;nbsp;" style="rhombus;whiteSpace=wrap;html=1;" parent="1" vertex="1">
          <mxGeometry x="1650" y="780" width="130" height="80" as="geometry" />
        </mxCell>
        <mxCell id="FIlBFSI00tIFWNVNL5qN-170" value="a[j] = a[i];" style="rounded=0;whiteSpace=wrap;html=1;" parent="1" vertex="1">
          <mxGeometry x="1540" y="870" width="120" height="30" as="geometry" />
        </mxCell>
        <mxCell id="FIlBFSI00tIFWNVNL5qN-171" value="j++;" style="rounded=0;whiteSpace=wrap;html=1;" parent="1" vertex="1">
          <mxGeometry x="1534.47" y="920" width="120" height="30" as="geometry" />
        </mxCell>
        <mxCell id="FIlBFSI00tIFWNVNL5qN-172" style="edgeStyle=orthogonalEdgeStyle;rounded=0;orthogonalLoop=1;jettySize=auto;html=1;exitX=0.5;exitY=1;exitDx=0;exitDy=0;entryX=0.545;entryY=-0.085;entryDx=0;entryDy=0;entryPerimeter=0;" parent="1" source="FIlBFSI00tIFWNVNL5qN-170" target="FIlBFSI00tIFWNVNL5qN-171" edge="1">
          <mxGeometry relative="1" as="geometry" />
        </mxCell>
        <mxCell id="FIlBFSI00tIFWNVNL5qN-175" style="edgeStyle=orthogonalEdgeStyle;rounded=0;orthogonalLoop=1;jettySize=auto;html=1;exitX=0.5;exitY=1;exitDx=0;exitDy=0;" parent="1" edge="1">
          <mxGeometry relative="1" as="geometry">
            <mxPoint x="1600" y="950" as="sourcePoint" />
            <mxPoint x="1720" y="1020" as="targetPoint" />
            <Array as="points">
              <mxPoint x="1600" y="1020" />
            </Array>
          </mxGeometry>
        </mxCell>
        <mxCell id="FIlBFSI00tIFWNVNL5qN-176" value="1" style="text;html=1;align=center;verticalAlign=middle;resizable=0;points=[];autosize=1;strokeColor=none;fillColor=none;" parent="1" vertex="1">
          <mxGeometry x="1625" y="788" width="30" height="30" as="geometry" />
        </mxCell>
        <mxCell id="FIlBFSI00tIFWNVNL5qN-177" value="0" style="text;html=1;align=center;verticalAlign=middle;resizable=0;points=[];autosize=1;strokeColor=none;fillColor=none;" parent="1" vertex="1">
          <mxGeometry x="1755" y="788" width="30" height="30" as="geometry" />
        </mxCell>
        <mxCell id="FIlBFSI00tIFWNVNL5qN-178" value="1" style="text;html=1;align=center;verticalAlign=middle;resizable=0;points=[];autosize=1;strokeColor=none;fillColor=none;" parent="1" vertex="1">
          <mxGeometry x="1345" y="258" width="30" height="30" as="geometry" />
        </mxCell>
        <mxCell id="FIlBFSI00tIFWNVNL5qN-179" value="0" style="text;html=1;align=center;verticalAlign=middle;resizable=0;points=[];autosize=1;strokeColor=none;fillColor=none;" parent="1" vertex="1">
          <mxGeometry x="1465" y="258" width="30" height="30" as="geometry" />
        </mxCell>
        <mxCell id="FIlBFSI00tIFWNVNL5qN-180" value="" style="endArrow=classic;html=1;rounded=0;entryX=0;entryY=0.5;entryDx=0;entryDy=0;" parent="1" target="FIlBFSI00tIFWNVNL5qN-160" edge="1">
          <mxGeometry width="50" height="50" relative="1" as="geometry">
            <mxPoint x="1720" y="1020" as="sourcePoint" />
            <mxPoint x="1770" y="970" as="targetPoint" />
            <Array as="points">
              <mxPoint x="1720" y="1050" />
              <mxPoint x="1510" y="1050" />
              <mxPoint x="1510" y="735" />
            </Array>
          </mxGeometry>
        </mxCell>
        <mxCell id="FIlBFSI00tIFWNVNL5qN-181" value="" style="edgeStyle=orthogonalEdgeStyle;rounded=0;orthogonalLoop=1;jettySize=auto;html=1;" parent="1" edge="1">
          <mxGeometry relative="1" as="geometry">
            <mxPoint x="1963.9714285714285" y="800" as="sourcePoint" />
            <mxPoint x="1963.9714285714285" y="820" as="targetPoint" />
          </mxGeometry>
        </mxCell>
        <mxCell id="FIlBFSI00tIFWNVNL5qN-182" style="edgeStyle=orthogonalEdgeStyle;rounded=0;orthogonalLoop=1;jettySize=auto;html=1;exitX=1;exitY=0.5;exitDx=0;exitDy=0;" parent="1" source="FIlBFSI00tIFWNVNL5qN-183" edge="1">
          <mxGeometry relative="1" as="geometry">
            <mxPoint x="2220" y="880" as="targetPoint" />
          </mxGeometry>
        </mxCell>
        <mxCell id="FIlBFSI00tIFWNVNL5qN-183" value="" style="verticalLabelPosition=bottom;verticalAlign=top;html=1;shape=hexagon;perimeter=hexagonPerimeter2;arcSize=6;size=0.11951219512195121;" parent="1" vertex="1">
          <mxGeometry x="1859.4714285714285" y="820" width="205" height="50" as="geometry" />
        </mxCell>
        <mxCell id="FIlBFSI00tIFWNVNL5qN-184" value="" style="edgeStyle=orthogonalEdgeStyle;rounded=0;orthogonalLoop=1;jettySize=auto;html=1;" parent="1" edge="1">
          <mxGeometry relative="1" as="geometry">
            <mxPoint x="1963.7314285714285" y="870" as="sourcePoint" />
            <mxPoint x="1963.9714285714285" y="890" as="targetPoint" />
          </mxGeometry>
        </mxCell>
        <mxCell id="FIlBFSI00tIFWNVNL5qN-185" value="for (int i = j; i &amp;lt; N; i++)&amp;nbsp;" style="text;html=1;align=center;verticalAlign=middle;whiteSpace=wrap;rounded=0;" parent="1" vertex="1">
          <mxGeometry x="1890" y="830" width="133.97" height="30" as="geometry" />
        </mxCell>
        <mxCell id="FIlBFSI00tIFWNVNL5qN-186" value="" style="edgeStyle=orthogonalEdgeStyle;rounded=0;orthogonalLoop=1;jettySize=auto;html=1;entryX=0;entryY=0.5;entryDx=0;entryDy=0;" parent="1" target="FIlBFSI00tIFWNVNL5qN-183" edge="1">
          <mxGeometry relative="1" as="geometry">
            <mxPoint x="1963.9714285714285" y="920" as="sourcePoint" />
            <mxPoint x="1843.9714285714285" y="890" as="targetPoint" />
            <Array as="points">
              <mxPoint x="1963.9714285714285" y="970" />
              <mxPoint x="1839.9714285714285" y="970" />
              <mxPoint x="1839.9714285714285" y="845" />
            </Array>
          </mxGeometry>
        </mxCell>
        <mxCell id="FIlBFSI00tIFWNVNL5qN-187" value="a[i] = 0;&amp;nbsp;&amp;nbsp;" style="rounded=0;whiteSpace=wrap;html=1;" parent="1" vertex="1">
          <mxGeometry x="1903.9714285714285" y="890" width="120" height="30" as="geometry" />
        </mxCell>
        <mxCell id="FIlBFSI00tIFWNVNL5qN-188" value="N = j;" style="rounded=0;whiteSpace=wrap;html=1;" parent="1" vertex="1">
          <mxGeometry x="2160.0014285714287" y="880" width="120" height="30" as="geometry" />
        </mxCell>
        <mxCell id="FIlBFSI00tIFWNVNL5qN-189" style="edgeStyle=orthogonalEdgeStyle;rounded=0;orthogonalLoop=1;jettySize=auto;html=1;exitX=0.5;exitY=1;exitDx=0;exitDy=0;" parent="1" source="FIlBFSI00tIFWNVNL5qN-190" edge="1">
          <mxGeometry relative="1" as="geometry">
            <mxPoint x="2040.25" y="1140" as="targetPoint" />
          </mxGeometry>
        </mxCell>
        <mxCell id="FIlBFSI00tIFWNVNL5qN-190" value="void ring(int a[], int N, int index)" style="shape=process;whiteSpace=wrap;html=1;backgroundOutline=1;" parent="1" vertex="1">
          <mxGeometry x="1935" y="1080" width="210" height="30" as="geometry" />
        </mxCell>
        <mxCell id="FIlBFSI00tIFWNVNL5qN-192" value="" style="edgeStyle=orthogonalEdgeStyle;rounded=0;orthogonalLoop=1;jettySize=auto;html=1;" parent="1" edge="1">
          <mxGeometry relative="1" as="geometry">
            <mxPoint x="2038.9714285714285" y="1170" as="sourcePoint" />
            <mxPoint x="2038.9714285714285" y="1190" as="targetPoint" />
          </mxGeometry>
        </mxCell>
        <mxCell id="FIlBFSI00tIFWNVNL5qN-193" style="edgeStyle=orthogonalEdgeStyle;rounded=0;orthogonalLoop=1;jettySize=auto;html=1;exitX=1;exitY=0.5;exitDx=0;exitDy=0;" parent="1" source="FIlBFSI00tIFWNVNL5qN-194" edge="1">
          <mxGeometry relative="1" as="geometry">
            <mxPoint x="2288.9714285714285" y="1300" as="targetPoint" />
          </mxGeometry>
        </mxCell>
        <mxCell id="FIlBFSI00tIFWNVNL5qN-194" value="" style="verticalLabelPosition=bottom;verticalAlign=top;html=1;shape=hexagon;perimeter=hexagonPerimeter2;arcSize=6;size=0.11951219512195121;" parent="1" vertex="1">
          <mxGeometry x="1934.4714285714285" y="1190" width="205" height="50" as="geometry" />
        </mxCell>
        <mxCell id="FIlBFSI00tIFWNVNL5qN-195" value="" style="edgeStyle=orthogonalEdgeStyle;rounded=0;orthogonalLoop=1;jettySize=auto;html=1;" parent="1" edge="1">
          <mxGeometry relative="1" as="geometry">
            <mxPoint x="2038.7314285714285" y="1240" as="sourcePoint" />
            <mxPoint x="2038.9714285714285" y="1260" as="targetPoint" />
          </mxGeometry>
        </mxCell>
        <mxCell id="FIlBFSI00tIFWNVNL5qN-196" value="for (int i = 0; i &lt; N; i++)" style="text;html=1;align=center;verticalAlign=middle;whiteSpace=wrap;rounded=0;" parent="1" vertex="1">
          <mxGeometry x="1970" y="1200" width="128.97" height="30" as="geometry" />
        </mxCell>
        <mxCell id="FIlBFSI00tIFWNVNL5qN-206" value="" style="endArrow=classic;html=1;rounded=0;entryX=0;entryY=0.5;entryDx=0;entryDy=0;exitX=0.519;exitY=1.023;exitDx=0;exitDy=0;exitPerimeter=0;" parent="1" source="FIlBFSI00tIFWNVNL5qN-216" target="FIlBFSI00tIFWNVNL5qN-194" edge="1">
          <mxGeometry width="50" height="50" relative="1" as="geometry">
            <mxPoint x="2045" y="1500" as="sourcePoint" />
            <mxPoint x="2095" y="1450" as="targetPoint" />
            <Array as="points">
              <mxPoint x="2040" y="1320" />
              <mxPoint x="1835" y="1320" />
              <mxPoint x="1835" y="1215" />
            </Array>
          </mxGeometry>
        </mxCell>
        <mxCell id="FIlBFSI00tIFWNVNL5qN-215" value="cout &amp;lt;&amp;lt; &quot;\nОднонаправленное кольцо (движение вправо):&quot; &amp;lt;&amp;lt; endl;" style="shape=parallelogram;perimeter=parallelogramPerimeter;whiteSpace=wrap;html=1;fixedSize=1;" parent="1" vertex="1">
          <mxGeometry x="1900" y="1140" width="270" height="30" as="geometry" />
        </mxCell>
        <mxCell id="FIlBFSI00tIFWNVNL5qN-216" value="cout &amp;lt;&amp;lt; a[(index + i) % N] &amp;lt;&amp;lt; &quot; &quot;;" style="shape=parallelogram;perimeter=parallelogramPerimeter;whiteSpace=wrap;html=1;fixedSize=1;" parent="1" vertex="1">
          <mxGeometry x="1899.48" y="1260" width="270" height="30" as="geometry" />
        </mxCell>
        <mxCell id="FIlBFSI00tIFWNVNL5qN-217" value="" style="edgeStyle=orthogonalEdgeStyle;rounded=0;orthogonalLoop=1;jettySize=auto;html=1;" parent="1" edge="1">
          <mxGeometry relative="1" as="geometry">
            <mxPoint x="2293.9714285714285" y="1330" as="sourcePoint" />
            <mxPoint x="2293.9714285714285" y="1350" as="targetPoint" />
          </mxGeometry>
        </mxCell>
        <mxCell id="FIlBFSI00tIFWNVNL5qN-218" style="edgeStyle=orthogonalEdgeStyle;rounded=0;orthogonalLoop=1;jettySize=auto;html=1;exitX=1;exitY=0.5;exitDx=0;exitDy=0;" parent="1" source="FIlBFSI00tIFWNVNL5qN-219" edge="1">
          <mxGeometry relative="1" as="geometry">
            <mxPoint x="2544" y="1400" as="targetPoint" />
            <Array as="points">
              <mxPoint x="2544" y="1375" />
            </Array>
          </mxGeometry>
        </mxCell>
        <mxCell id="FIlBFSI00tIFWNVNL5qN-219" value="" style="verticalLabelPosition=bottom;verticalAlign=top;html=1;shape=hexagon;perimeter=hexagonPerimeter2;arcSize=6;size=0.11951219512195121;" parent="1" vertex="1">
          <mxGeometry x="2189.4714285714285" y="1350" width="205" height="50" as="geometry" />
        </mxCell>
        <mxCell id="FIlBFSI00tIFWNVNL5qN-220" value="" style="edgeStyle=orthogonalEdgeStyle;rounded=0;orthogonalLoop=1;jettySize=auto;html=1;" parent="1" edge="1">
          <mxGeometry relative="1" as="geometry">
            <mxPoint x="2293.7314285714283" y="1400" as="sourcePoint" />
            <mxPoint x="2293.9714285714285" y="1420" as="targetPoint" />
          </mxGeometry>
        </mxCell>
        <mxCell id="FIlBFSI00tIFWNVNL5qN-221" value="for (int i = 0; i &lt; N; i++)" style="text;html=1;align=center;verticalAlign=middle;whiteSpace=wrap;rounded=0;" parent="1" vertex="1">
          <mxGeometry x="2225" y="1360" width="128.97" height="30" as="geometry" />
        </mxCell>
        <mxCell id="FIlBFSI00tIFWNVNL5qN-222" value="" style="endArrow=classic;html=1;rounded=0;entryX=0;entryY=0.5;entryDx=0;entryDy=0;exitX=0.519;exitY=1.023;exitDx=0;exitDy=0;exitPerimeter=0;" parent="1" source="FIlBFSI00tIFWNVNL5qN-224" target="FIlBFSI00tIFWNVNL5qN-219" edge="1">
          <mxGeometry width="50" height="50" relative="1" as="geometry">
            <mxPoint x="2300" y="1660" as="sourcePoint" />
            <mxPoint x="2350" y="1610" as="targetPoint" />
            <Array as="points">
              <mxPoint x="2295" y="1480" />
              <mxPoint x="2090" y="1480" />
              <mxPoint x="2090" y="1375" />
            </Array>
          </mxGeometry>
        </mxCell>
        <mxCell id="FIlBFSI00tIFWNVNL5qN-223" value="cout &amp;lt;&amp;lt; &quot;\nОднонаправленное кольцо (движение влево):&quot; &amp;lt;&amp;lt; endl;" style="shape=parallelogram;perimeter=parallelogramPerimeter;whiteSpace=wrap;html=1;fixedSize=1;" parent="1" vertex="1">
          <mxGeometry x="2155" y="1300" width="270" height="30" as="geometry" />
        </mxCell>
        <mxCell id="FIlBFSI00tIFWNVNL5qN-224" value="cout &amp;lt;&amp;lt; a[(index - i + N) % N] &amp;lt;&amp;lt; &quot; &quot;;" style="shape=parallelogram;perimeter=parallelogramPerimeter;whiteSpace=wrap;html=1;fixedSize=1;" parent="1" vertex="1">
          <mxGeometry x="2154.48" y="1420" width="270" height="30" as="geometry" />
        </mxCell>
        <mxCell id="FIlBFSI00tIFWNVNL5qN-225" value="return 0;" style="ellipse;whiteSpace=wrap;html=1;" parent="1" vertex="1">
          <mxGeometry x="2480" y="1400" width="120" height="40" as="geometry" />
        </mxCell>
        <mxCell id="FIlBFSI00tIFWNVNL5qN-226" value="{" style="text;html=1;align=center;verticalAlign=middle;resizable=0;points=[];autosize=1;strokeColor=none;fillColor=none;" parent="1" vertex="1">
          <mxGeometry x="2005" y="1108" width="30" height="30" as="geometry" />
        </mxCell>
        <mxCell id="FIlBFSI00tIFWNVNL5qN-227" value="}" style="text;html=1;align=center;verticalAlign=middle;resizable=0;points=[];autosize=1;strokeColor=none;fillColor=none;" parent="1" vertex="1">
          <mxGeometry x="2605" y="1428" width="30" height="30" as="geometry" />
        </mxCell>
        <mxCell id="FIlBFSI00tIFWNVNL5qN-228" value="{" style="text;html=1;align=center;verticalAlign=middle;resizable=0;points=[];autosize=1;strokeColor=none;fillColor=none;" parent="1" vertex="1">
          <mxGeometry x="1625" y="638" width="30" height="30" as="geometry" />
        </mxCell>
        <mxCell id="FIlBFSI00tIFWNVNL5qN-229" value="}" style="text;html=1;align=center;verticalAlign=middle;resizable=0;points=[];autosize=1;strokeColor=none;fillColor=none;" parent="1" vertex="1">
          <mxGeometry x="2225" y="908" width="30" height="30" as="geometry" />
        </mxCell>
        <mxCell id="FIlBFSI00tIFWNVNL5qN-230" value="{" style="text;html=1;align=center;verticalAlign=middle;resizable=0;points=[];autosize=1;strokeColor=none;fillColor=none;" parent="1" vertex="1">
          <mxGeometry x="1565" y="808" width="30" height="30" as="geometry" />
        </mxCell>
        <mxCell id="FIlBFSI00tIFWNVNL5qN-231" value="}" style="text;html=1;align=center;verticalAlign=middle;resizable=0;points=[];autosize=1;strokeColor=none;fillColor=none;" parent="1" vertex="1">
          <mxGeometry x="1615" y="978" width="30" height="30" as="geometry" />
        </mxCell>
        <mxCell id="FIlBFSI00tIFWNVNL5qN-232" value="{" style="text;html=1;align=center;verticalAlign=middle;resizable=0;points=[];autosize=1;strokeColor=none;fillColor=none;" parent="1" vertex="1">
          <mxGeometry x="1275" y="288" width="30" height="30" as="geometry" />
        </mxCell>
        <mxCell id="FIlBFSI00tIFWNVNL5qN-233" value="}" style="text;html=1;align=center;verticalAlign=middle;resizable=0;points=[];autosize=1;strokeColor=none;fillColor=none;" parent="1" vertex="1">
          <mxGeometry x="1365" y="458" width="30" height="30" as="geometry" />
        </mxCell>
        <mxCell id="FIlBFSI00tIFWNVNL5qN-234" value="{" style="text;html=1;align=center;verticalAlign=middle;resizable=0;points=[];autosize=1;strokeColor=none;fillColor=none;" parent="1" vertex="1">
          <mxGeometry x="275" y="98" width="30" height="30" as="geometry" />
        </mxCell>
        <mxCell id="FIlBFSI00tIFWNVNL5qN-235" value="{" style="text;html=1;align=center;verticalAlign=middle;resizable=0;points=[];autosize=1;strokeColor=none;fillColor=none;" parent="1" vertex="1">
          <mxGeometry x="825" y="668" width="30" height="30" as="geometry" />
        </mxCell>
        <mxCell id="FIlBFSI00tIFWNVNL5qN-236" value="{" style="text;html=1;align=center;verticalAlign=middle;resizable=0;points=[];autosize=1;strokeColor=none;fillColor=none;" parent="1" vertex="1">
          <mxGeometry x="835" y="1258" width="30" height="30" as="geometry" />
        </mxCell>
        <mxCell id="FIlBFSI00tIFWNVNL5qN-237" value="{" style="text;html=1;align=center;verticalAlign=middle;resizable=0;points=[];autosize=1;strokeColor=none;fillColor=none;" parent="1" vertex="1">
          <mxGeometry x="1241" y="1680" width="30" height="30" as="geometry" />
        </mxCell>
        <mxCell id="FIlBFSI00tIFWNVNL5qN-239" value="}" style="text;html=1;align=center;verticalAlign=middle;resizable=0;points=[];autosize=1;strokeColor=none;fillColor=none;" parent="1" vertex="1">
          <mxGeometry x="1195" y="1988" width="30" height="30" as="geometry" />
        </mxCell>
        <mxCell id="FIlBFSI00tIFWNVNL5qN-240" value="}" style="text;html=1;align=center;verticalAlign=middle;resizable=0;points=[];autosize=1;strokeColor=none;fillColor=none;" parent="1" vertex="1">
          <mxGeometry x="835" y="2678" width="30" height="30" as="geometry" />
        </mxCell>
        <mxCell id="FIlBFSI00tIFWNVNL5qN-241" value="}" style="text;html=1;align=center;verticalAlign=middle;resizable=0;points=[];autosize=1;strokeColor=none;fillColor=none;" parent="1" vertex="1">
          <mxGeometry x="795" y="2708" width="30" height="30" as="geometry" />
        </mxCell>
        <mxCell id="FIlBFSI00tIFWNVNL5qN-242" value="}" style="text;html=1;align=center;verticalAlign=middle;resizable=0;points=[];autosize=1;strokeColor=none;fillColor=none;" parent="1" vertex="1">
          <mxGeometry x="1185" y="2838" width="30" height="30" as="geometry" />
        </mxCell>
        <mxCell id="JD58qE1EzqoFA1zXobhS-3" value="" style="endArrow=none;html=1;rounded=0;" edge="1" parent="1">
          <mxGeometry width="50" height="50" relative="1" as="geometry">
            <mxPoint x="1620" y="2240" as="sourcePoint" />
            <mxPoint x="1420" y="2200" as="targetPoint" />
            <Array as="points">
              <mxPoint x="1420" y="2240" />
            </Array>
          </mxGeometry>
        </mxCell>
        <mxCell id="JD58qE1EzqoFA1zXobhS-6" value="" style="endArrow=none;html=1;rounded=0;exitX=1;exitY=0.5;exitDx=0;exitDy=0;" edge="1" parent="1" source="FIlBFSI00tIFWNVNL5qN-99">
          <mxGeometry width="50" height="50" relative="1" as="geometry">
            <mxPoint x="1530" y="2290" as="sourcePoint" />
            <mxPoint x="1620" y="2280" as="targetPoint" />
          </mxGeometry>
        </mxCell>
        <mxCell id="JD58qE1EzqoFA1zXobhS-7" value="" style="endArrow=none;html=1;rounded=0;exitX=1;exitY=0.5;exitDx=0;exitDy=0;" edge="1" parent="1">
          <mxGeometry width="50" height="50" relative="1" as="geometry">
            <mxPoint x="1225" y="2399.33" as="sourcePoint" />
            <mxPoint x="1620" y="2400" as="targetPoint" />
          </mxGeometry>
        </mxCell>
        <mxCell id="JD58qE1EzqoFA1zXobhS-8" value="" style="endArrow=none;html=1;rounded=0;" edge="1" parent="1">
          <mxGeometry width="50" height="50" relative="1" as="geometry">
            <mxPoint x="1320" y="2520" as="sourcePoint" />
            <mxPoint x="1620" y="2520" as="targetPoint" />
          </mxGeometry>
        </mxCell>
        <mxCell id="JD58qE1EzqoFA1zXobhS-10" value="" style="endArrow=none;html=1;rounded=0;" edge="1" parent="1">
          <mxGeometry width="50" height="50" relative="1" as="geometry">
            <mxPoint x="1335" y="2639.62" as="sourcePoint" />
            <mxPoint x="1620" y="2640" as="targetPoint" />
          </mxGeometry>
        </mxCell>
        <mxCell id="JD58qE1EzqoFA1zXobhS-20" value="{" style="text;html=1;align=center;verticalAlign=middle;resizable=0;points=[];autosize=1;strokeColor=none;fillColor=none;" vertex="1" parent="1">
          <mxGeometry x="1305" y="90" width="30" height="30" as="geometry" />
        </mxCell>
        <mxCell id="JD58qE1EzqoFA1zXobhS-21" value="}" style="text;html=1;align=center;verticalAlign=middle;resizable=0;points=[];autosize=1;strokeColor=none;fillColor=none;" vertex="1" parent="1">
          <mxGeometry x="1775" y="228" width="30" height="30" as="geometry" />
        </mxCell>
      </root>
    </mxGraphModel>
  </diagram>
</mxfile>
